<svg width="1138" height="739" viewBox="0 0 1138 739" fill="none" xmlns="http://www.w3.org/2000/svg">
<g opacity="0.5">
<path d="M1118.22 415.121C1059.58 445.654 857.968 337.093 802.234 396.22C746.499 455.347 990.761 636.604 865.237 645.813C739.714 655.021 678.164 733.534 620.975 737.895C563.787 742.257 459.104 608.98 399.977 574.57C340.85 540.16 169.285 651.628 139.722 626.427C110.158 601.225 305.471 423.845 78.1722 415.121C-149.127 406.398 194.488 299.291 230.836 260.034C267.184 220.778 309.833 135.965 315.649 109.794C321.464 83.6232 361.205 27.4043 399.977 9.47244C438.749 -8.45947 506.599 1.7182 539.071 43.3976C571.542 85.0771 666.533 242.103 728.083 260.034C789.633 277.966 862.814 199.938 899.163 187.338C935.511 174.737 1006.27 184.43 1045.04 216.901C1083.81 249.372 1176.86 384.588 1118.22 415.121Z" stroke="url(#paint0_linear_5_845)"/>
<path d="M623.188 342.248C682.8 328.678 788.453 493.457 780.698 508.966C772.944 524.475 718.664 507.125 689.585 499.758C653.237 490.55 694.432 683.924 672.138 672.777C649.844 661.63 637.728 608.319 609.134 586.51C580.54 564.701 539.829 543.861 477.31 508.966C414.791 474.072 452.593 365.996 520.928 370.842C589.263 375.689 563.577 355.818 623.188 342.248Z" stroke="url(#paint1_linear_5_845)"/>
<path d="M1090.54 408.171C1036.26 439.223 845.409 337.978 792.144 394.659C738.879 451.339 970.771 623.944 850.359 632.555C729.948 641.167 670.336 715.647 615.178 719.625C559.848 723.56 460.208 598.822 404.037 568.231C347.867 537.641 184.697 645.971 156.011 621.704C127.324 597.437 312.927 427.736 96.0046 418.597C-120.918 409.458 205.849 306.557 239.786 268.651C273.722 230.744 313.515 149.462 318.027 123.952C322.539 98.4418 359.159 44.2366 394.595 26.3277C430.032 8.41891 494.358 16.4099 525.767 54.6391C557.177 92.8684 648.908 241.187 709.154 258.381C769.4 275.574 839.605 201.083 874.678 188.794C909.751 176.504 977.544 185.338 1015.89 215.94C1054.23 246.542 1144.82 377.119 1090.54 408.171Z" stroke="url(#paint2_linear_5_845)"/>
<path d="M1062.86 401.322C1012.93 432.893 832.851 338.964 782.055 393.198C731.26 447.432 950.781 611.384 835.482 619.399C720.182 627.414 662.509 697.861 609.382 701.456C555.91 704.964 461.312 588.765 408.099 561.994C354.886 535.223 200.11 640.414 172.301 617.082C144.492 593.75 320.384 431.728 113.838 422.173C-92.7075 412.619 217.212 313.924 248.737 277.368C280.262 240.812 317.199 163.061 320.407 138.211C323.615 113.361 357.113 61.1698 389.215 43.284C421.317 25.3983 482.117 31.2026 512.465 65.9816C542.813 100.761 631.284 240.373 690.227 256.828C749.169 273.283 816.396 202.329 850.194 190.351C883.993 178.373 948.82 186.347 986.738 215.079C1024.66 243.812 1112.78 369.751 1062.86 401.322Z" stroke="url(#paint3_linear_5_845)"/>
<path d="M1035.17 394.598C989.609 426.689 820.294 340.075 771.968 391.863C723.642 443.651 930.794 598.949 820.606 606.368C710.418 613.786 654.683 680.2 603.588 683.413C551.973 686.494 462.418 578.833 412.162 555.881C361.905 532.93 215.525 634.983 188.592 612.585C161.66 590.187 327.842 435.845 131.673 425.875C-64.4961 415.905 228.576 321.417 257.689 286.211C286.803 251.004 320.884 176.784 322.788 152.595C324.692 128.406 355.069 78.2282 383.836 60.3655C412.603 42.5029 469.878 46.1205 499.164 77.4493C528.451 108.778 613.662 239.685 671.3 255.401C728.938 271.117 793.189 203.7 825.712 192.033C858.235 180.367 920.097 187.481 957.588 214.344C995.078 241.208 1080.74 362.508 1035.17 394.598Z" stroke="url(#paint4_linear_5_845)"/>
<path d="M1007.49 388.029C966.287 420.639 807.738 341.342 761.882 390.683C716.025 440.025 910.806 586.669 805.73 593.491C700.655 600.313 646.858 662.694 597.794 665.524C548.037 668.178 463.524 569.056 416.225 549.924C368.925 530.792 230.94 629.706 204.884 608.243C178.829 586.78 335.3 440.117 149.508 429.732C-36.2842 419.347 239.941 329.064 266.642 295.208C293.344 261.352 324.569 190.663 325.169 167.134C325.769 143.606 353.025 95.4414 378.457 77.6018C403.889 59.7622 457.639 61.1932 485.864 89.0718C514.089 116.95 596.04 239.151 652.375 254.128C708.709 269.106 769.982 205.225 801.23 193.871C832.478 182.516 891.374 188.77 928.438 213.764C965.502 238.758 1048.7 355.419 1007.49 388.029Z" stroke="url(#paint5_linear_5_845)"/>
<path d="M979.815 381.654C942.967 414.783 795.185 342.802 751.797 389.697C708.41 436.592 890.821 574.584 790.857 580.809C690.893 587.034 639.036 645.382 592.002 647.829C544.103 650.056 464.633 559.473 420.29 544.161C375.948 528.848 246.357 624.623 221.179 604.095C196 583.567 342.761 444.583 167.346 433.783C-8.06998 422.982 251.308 336.905 275.598 304.399C299.888 271.893 328.257 204.735 327.553 181.868C326.849 159 350.983 112.849 373.081 95.0323C395.178 77.2158 445.403 76.46 472.566 100.888C499.729 125.317 578.421 238.811 633.451 253.05C688.482 267.289 746.778 206.945 776.751 195.902C806.724 184.859 862.654 190.254 899.291 213.378C935.928 236.503 1016.66 348.525 979.815 381.654Z" stroke="url(#paint6_linear_5_845)"/>
<path d="M952.138 375.525C919.65 409.174 782.633 344.508 741.716 388.957C700.798 433.406 870.839 562.744 775.987 568.373C681.135 574.002 631.216 628.317 586.213 630.38C540.172 632.18 465.744 550.136 424.359 538.643C382.973 527.15 261.777 619.787 237.476 600.193C213.174 580.6 350.225 449.295 185.186 438.079C20.1469 426.863 262.678 344.993 284.556 313.837C306.434 282.681 331.947 219.054 329.939 196.847C327.931 174.64 348.944 130.502 367.707 112.709C386.47 94.9153 433.169 91.9729 459.271 112.951C485.372 133.929 560.804 238.717 614.531 252.218C668.257 265.718 723.576 208.911 752.274 198.18C780.972 187.448 833.937 191.983 870.147 213.238C906.357 234.493 984.627 341.877 952.138 375.525Z" stroke="url(#paint7_linear_5_845)"/>
<path d="M924.465 369.707C896.335 403.875 770.085 346.525 731.637 388.528C693.188 430.53 850.86 551.215 761.119 556.248C671.379 561.28 623.399 611.562 580.427 613.242C536.243 614.615 466.858 541.111 428.43 533.437C390.001 525.763 277.2 615.261 253.775 596.602C230.351 577.944 357.692 454.318 203.029 442.687C48.3665 431.056 274.05 353.391 293.517 323.585C312.983 293.779 335.64 233.683 332.328 212.137C329.017 190.59 346.908 148.466 362.336 130.696C377.764 112.926 420.938 107.797 445.978 125.325C471.018 142.853 543.19 238.934 595.613 251.696C648.035 264.458 700.377 211.188 727.8 200.768C755.223 190.348 805.222 194.023 841.005 213.409C876.788 232.795 952.595 335.54 924.465 369.707Z" stroke="url(#paint8_linear_5_845)"/>
<path d="M896.795 364.286C873.024 398.973 757.54 348.939 721.561 388.495C685.582 428.052 830.883 540.084 746.255 544.519C661.626 548.955 615.585 595.204 574.644 596.501C532.318 597.447 467.976 532.482 432.504 528.627C397.032 524.773 292.626 611.133 270.078 593.408C247.531 575.684 365.161 459.738 220.875 447.692C76.5894 435.645 285.426 362.186 302.481 333.731C319.535 305.275 339.337 248.71 334.721 227.824C330.105 206.938 344.875 166.828 356.968 149.08C369.062 131.333 408.71 124.017 432.689 138.095C456.667 152.173 525.579 239.548 576.698 251.572C627.816 263.595 677.181 213.861 703.329 203.753C729.477 193.645 776.511 196.46 811.867 213.977C847.223 231.493 920.566 329.599 896.795 364.286Z" stroke="url(#paint9_linear_5_845)"/>
<path d="M869.128 359.367C849.716 394.573 744.998 351.855 711.488 388.965C677.979 426.075 810.91 529.453 731.393 533.292C651.877 537.131 607.774 579.347 568.864 580.261C528.396 580.781 469.096 524.354 436.581 524.319C404.067 524.285 308.055 607.505 286.384 590.716C264.714 573.926 372.634 465.66 238.725 453.198C104.816 440.735 296.805 371.483 311.448 344.377C326.091 317.272 343.036 264.237 337.117 244.012C331.197 223.787 342.846 185.69 351.604 167.966C360.362 150.242 396.486 140.739 419.403 151.367C442.319 161.994 507.972 240.663 557.786 251.948C607.601 263.234 653.989 217.037 678.861 207.24C703.734 197.443 747.802 199.399 782.731 215.046C817.66 230.693 888.54 324.16 869.128 359.367Z" stroke="url(#paint10_linear_5_845)"/>
<path d="M841.468 355.075C826.415 390.801 732.463 355.399 701.422 390.062C670.382 424.726 790.943 519.451 716.539 522.694C642.134 525.936 599.969 564.119 563.09 564.65C524.48 564.743 470.223 516.855 440.665 520.64C411.107 524.425 323.49 604.507 302.697 588.652C281.903 572.797 380.113 472.21 256.581 459.332C133.048 446.454 308.19 381.408 320.421 355.652C332.653 329.897 346.742 280.394 339.518 260.829C332.295 241.264 340.822 205.181 346.246 187.48C351.669 169.779 384.267 158.09 406.123 165.267C427.978 172.445 490.37 242.407 538.881 252.954C587.392 263.501 630.802 220.84 654.4 211.355C677.998 201.87 719.1 202.966 753.603 216.744C788.105 230.521 856.52 319.35 841.468 355.075Z" stroke="url(#paint11_linear_5_845)"/>
<path d="M813.814 351.559C803.12 387.804 719.934 359.718 691.363 391.935C662.792 424.152 770.984 510.225 701.691 512.87C632.398 515.516 592.172 549.667 557.324 549.814C520.571 549.48 471.357 510.131 444.756 517.735C418.155 525.34 338.933 602.283 319.016 587.363C299.1 572.443 387.6 479.535 274.443 466.242C161.287 452.949 319.582 392.108 329.402 367.703C339.221 343.297 350.455 297.325 341.927 278.421C333.4 259.517 338.806 225.448 340.895 207.77C342.983 190.092 372.056 176.216 392.85 179.943C413.644 183.67 472.776 244.926 519.983 254.734C567.19 264.543 607.623 225.419 629.946 216.245C652.268 207.072 690.405 207.308 724.481 219.216C758.556 231.125 824.508 315.315 813.814 351.559Z" stroke="url(#paint12_linear_5_845)"/>
<path d="M786.17 348.974C779.835 385.738 707.415 364.968 681.314 394.739C655.212 424.51 751.034 501.929 686.853 503.978C622.672 506.027 584.384 536.145 551.567 535.909C516.673 535.148 472.501 504.338 448.857 515.762C425.213 527.186 354.385 600.99 335.346 587.005C316.306 573.019 395.096 487.791 292.316 474.082C189.537 460.374 330.984 403.739 338.392 380.684C345.8 357.629 354.178 315.188 344.346 296.944C334.515 278.701 336.8 246.645 335.553 228.99C334.307 211.335 359.855 195.272 379.587 195.549C399.319 195.826 455.192 248.376 501.095 257.445C546.998 266.515 584.454 230.928 605.501 222.066C626.549 213.204 661.72 212.581 695.369 222.62C729.017 232.659 792.505 312.21 786.17 348.974Z" stroke="url(#paint13_linear_5_845)"/>
<path d="M758.539 347.155C756.563 384.438 694.909 370.984 671.277 398.309C647.645 425.633 731.096 494.399 672.027 495.852C612.958 497.304 576.609 523.389 545.823 522.77C512.786 521.582 473.657 499.311 452.97 514.554C432.283 529.798 369.85 600.464 351.687 587.413C333.524 574.362 402.604 496.813 310.201 482.689C217.798 468.565 342.398 416.137 347.395 394.431C352.391 372.726 357.913 333.816 346.777 316.233C335.642 298.65 334.805 268.608 330.224 250.976C325.643 233.344 347.666 215.095 366.336 211.922C385.007 208.748 437.62 252.592 482.219 260.923C526.818 269.254 561.297 237.204 581.069 228.654C600.842 220.103 633.047 218.62 666.269 226.79C699.49 234.96 760.515 309.872 758.539 347.155Z" stroke="url(#paint14_linear_5_845)"/>
<path d="M730.927 345.937C733.31 383.739 682.422 377.601 661.259 402.479C640.096 427.358 711.178 487.47 657.221 488.326C603.263 489.182 568.853 511.234 540.098 510.232C508.919 508.617 474.832 494.885 457.102 513.948C439.372 533.011 385.334 600.538 368.048 588.422C350.763 576.306 410.132 506.436 328.105 491.896C246.079 477.357 353.832 429.135 356.417 408.78C359.002 388.424 361.667 353.045 349.228 336.123C336.789 319.201 332.831 291.172 324.915 273.563C316.999 255.954 335.496 235.519 353.105 228.895C370.714 222.272 420.067 257.408 463.362 265.001C506.657 272.594 538.159 244.081 556.656 235.842C575.154 227.603 604.394 225.26 637.188 231.561C669.983 237.861 728.544 308.135 730.927 345.937Z" stroke="url(#paint15_linear_5_845)"/>
<path d="M706.145 354.577C712.886 392.898 672.765 394.075 654.071 416.507C635.378 438.94 694.089 490.399 645.244 490.658C596.398 490.918 563.927 508.936 537.202 507.552C507.881 505.509 478.837 500.317 464.064 523.199C449.291 546.081 403.647 610.47 387.239 599.288C370.83 588.107 420.489 525.916 348.839 510.962C277.19 496.007 368.095 451.991 368.268 432.985C368.441 413.98 368.251 382.132 354.508 365.871C340.765 349.609 333.685 323.594 322.435 306.008C311.184 288.422 326.156 265.8 342.703 255.726C359.25 245.652 405.344 272.083 447.335 278.937C489.326 285.792 517.851 260.815 535.073 252.888C552.295 244.96 578.57 241.758 610.938 246.189C643.305 250.62 699.403 316.255 706.145 354.577Z" stroke="url(#paint16_linear_5_845)"/>
<path d="M707.826 363.56C718.927 402.401 689.571 410.893 673.347 430.879C657.123 450.865 703.465 493.671 659.731 493.334C615.997 492.997 585.465 506.983 560.771 505.215C533.308 502.746 509.306 506.092 497.49 532.794C485.674 559.495 448.425 620.745 432.893 610.499C417.362 600.252 457.31 545.741 396.037 530.37C334.764 515 408.823 475.19 406.584 457.535C404.346 439.88 401.299 411.563 386.252 395.962C371.205 380.361 361.004 356.359 346.419 338.797C331.833 321.234 343.28 296.425 358.766 282.901C374.251 269.377 417.085 287.101 457.772 293.217C498.459 299.333 524.007 277.893 539.954 270.277C555.901 262.661 579.211 258.599 611.151 261.161C643.091 263.723 696.726 324.719 707.826 363.56Z" stroke="url(#paint17_linear_5_845)"/>
<path d="M710.308 373.081C725.768 412.441 707.178 428.25 693.424 445.79C679.669 463.329 713.64 497.482 675.019 496.548C636.397 495.615 607.803 505.567 585.14 503.416C559.534 500.52 540.576 512.406 531.716 542.927C522.857 573.448 494.003 631.559 479.349 622.247C464.694 612.935 494.932 566.103 444.036 550.318C393.139 534.532 450.351 498.928 445.7 482.623C441.05 466.318 435.148 441.532 418.797 426.591C402.446 411.651 389.124 389.663 371.203 372.123C353.283 354.584 361.204 327.588 375.629 310.614C390.053 293.64 429.626 302.658 469.009 308.035C508.393 313.412 530.963 295.509 545.635 288.205C560.308 280.9 580.651 275.979 612.165 276.671C643.678 277.364 694.849 333.721 710.308 373.081Z" stroke="url(#paint18_linear_5_845)"/>
<path d="M713.563 383.259C733.382 423.139 725.559 446.263 714.273 461.356C702.988 476.45 724.589 501.949 691.08 500.419C657.57 498.889 630.914 504.808 610.282 502.274C586.534 498.951 572.618 519.376 566.716 553.716C560.813 588.057 540.355 643.03 526.577 634.652C512.799 626.275 533.327 587.122 492.807 570.921C452.287 554.72 492.652 523.322 485.59 508.367C478.528 493.412 469.769 472.157 452.114 457.877C434.459 443.598 418.016 423.623 396.761 406.107C375.506 388.59 379.902 359.408 393.264 338.983C406.627 318.559 442.941 318.871 481.02 323.509C519.099 328.148 538.693 313.782 552.09 306.789C565.487 299.796 582.865 294.015 613.951 292.838C645.038 291.661 693.745 343.38 713.563 383.259Z" stroke="url(#paint19_linear_5_845)"/>
<path d="M717.529 393.603C741.706 434.002 744.649 464.443 735.833 477.09C727.017 489.737 736.248 506.583 707.85 504.456C679.452 502.329 654.735 504.216 636.134 501.299C614.244 497.549 605.371 526.512 602.425 564.672C599.48 602.832 587.416 654.666 574.515 647.223C561.614 639.781 572.432 608.308 542.289 591.691C512.146 575.075 535.663 547.883 526.189 534.278C516.715 520.673 505.101 502.949 486.142 489.33C467.183 475.711 447.618 457.75 423.028 440.256C398.438 422.763 399.31 391.394 411.61 367.519C423.911 343.645 456.965 335.25 493.741 339.15C530.516 343.05 547.132 332.221 559.254 325.54C571.376 318.858 585.789 312.218 616.448 309.171C647.108 306.125 693.351 353.205 717.529 393.603Z" stroke="url(#paint20_linear_5_845)"/>
<path d="M722.112 404.076C750.648 444.994 764.357 482.75 758.01 492.951C751.663 503.152 748.525 511.344 725.239 508.621C701.953 505.898 679.174 503.752 662.604 500.452C642.572 496.274 638.741 533.777 638.753 575.756C638.764 617.736 635.095 666.431 623.071 659.923C611.047 653.415 612.155 629.621 592.388 612.589C572.621 595.558 579.291 572.572 567.406 560.317C555.52 548.062 541.05 533.869 520.787 520.911C500.524 507.952 477.838 492.005 449.914 474.534C421.989 457.064 419.335 423.508 430.574 396.183C441.813 368.859 471.607 351.758 507.079 354.919C542.55 358.081 556.19 350.788 567.036 344.419C577.883 338.049 589.33 330.548 619.563 325.633C649.795 320.717 693.575 363.158 722.112 404.076Z" stroke="url(#paint21_linear_5_845)"/>
</g>
<defs>
<linearGradient id="paint0_linear_5_845" x1="569.059" y1="1" x2="569.059" y2="738" gradientUnits="userSpaceOnUse">
<stop stop-color="#054267"/>
<stop offset="1" stop-color="#7ACAFB" stop-opacity="0.24"/>
</linearGradient>
<linearGradient id="paint1_linear_5_845" x1="613.318" y1="341.455" x2="613.318" y2="673.241" gradientUnits="userSpaceOnUse">
<stop stop-color="#054267"/>
<stop offset="1" stop-color="#7ACAFB" stop-opacity="0.24"/>
</linearGradient>
<linearGradient id="paint2_linear_5_845" x1="564.799" y1="17.2122" x2="564.799" y2="719.716" gradientUnits="userSpaceOnUse">
<stop stop-color="#054267"/>
<stop offset="1" stop-color="#7ACAFB" stop-opacity="0.24"/>
</linearGradient>
<linearGradient id="paint3_linear_5_845" x1="560.562" y1="33.4241" x2="560.562" y2="701.534" gradientUnits="userSpaceOnUse">
<stop stop-color="#054267"/>
<stop offset="1" stop-color="#7ACAFB" stop-opacity="0.24"/>
</linearGradient>
<linearGradient id="paint4_linear_5_845" x1="556.354" y1="49.6365" x2="556.354" y2="683.477" gradientUnits="userSpaceOnUse">
<stop stop-color="#054267"/>
<stop offset="1" stop-color="#7ACAFB" stop-opacity="0.24"/>
</linearGradient>
<linearGradient id="paint5_linear_5_845" x1="552.175" y1="65.8486" x2="552.175" y2="665.576" gradientUnits="userSpaceOnUse">
<stop stop-color="#054267"/>
<stop offset="1" stop-color="#7ACAFB" stop-opacity="0.24"/>
</linearGradient>
<linearGradient id="paint6_linear_5_845" x1="548.034" y1="82.0605" x2="548.034" y2="647.869" gradientUnits="userSpaceOnUse">
<stop stop-color="#054267"/>
<stop offset="1" stop-color="#7ACAFB" stop-opacity="0.24"/>
</linearGradient>
<linearGradient id="paint7_linear_5_845" x1="543.935" y1="98.2729" x2="543.935" y2="630.409" gradientUnits="userSpaceOnUse">
<stop stop-color="#054267"/>
<stop offset="1" stop-color="#7ACAFB" stop-opacity="0.24"/>
</linearGradient>
<linearGradient id="paint8_linear_5_845" x1="539.886" y1="114.485" x2="539.886" y2="613.261" gradientUnits="userSpaceOnUse">
<stop stop-color="#054267"/>
<stop offset="1" stop-color="#7ACAFB" stop-opacity="0.24"/>
</linearGradient>
<linearGradient id="paint9_linear_5_845" x1="535.896" y1="130.697" x2="535.896" y2="596.511" gradientUnits="userSpaceOnUse">
<stop stop-color="#054267"/>
<stop offset="1" stop-color="#7ACAFB" stop-opacity="0.24"/>
</linearGradient>
<linearGradient id="paint10_linear_5_845" x1="531.975" y1="146.909" x2="531.975" y2="592.953" gradientUnits="userSpaceOnUse">
<stop stop-color="#054267"/>
<stop offset="1" stop-color="#7ACAFB" stop-opacity="0.24"/>
</linearGradient>
<linearGradient id="paint11_linear_5_845" x1="528.141" y1="163.121" x2="528.141" y2="590.727" gradientUnits="userSpaceOnUse">
<stop stop-color="#054267"/>
<stop offset="1" stop-color="#7ACAFB" stop-opacity="0.24"/>
</linearGradient>
<linearGradient id="paint12_linear_5_845" x1="524.412" y1="179.333" x2="524.412" y2="589.277" gradientUnits="userSpaceOnUse">
<stop stop-color="#054267"/>
<stop offset="1" stop-color="#7ACAFB" stop-opacity="0.24"/>
</linearGradient>
<linearGradient id="paint13_linear_5_845" x1="520.815" y1="195.546" x2="520.815" y2="588.761" gradientUnits="userSpaceOnUse">
<stop stop-color="#054267"/>
<stop offset="1" stop-color="#7ACAFB" stop-opacity="0.24"/>
</linearGradient>
<linearGradient id="paint14_linear_5_845" x1="517.387" y1="211.758" x2="517.387" y2="589.012" gradientUnits="userSpaceOnUse">
<stop stop-color="#054267"/>
<stop offset="1" stop-color="#7ACAFB" stop-opacity="0.24"/>
</linearGradient>
<linearGradient id="paint15_linear_5_845" x1="514.182" y1="227.97" x2="514.182" y2="589.866" gradientUnits="userSpaceOnUse">
<stop stop-color="#054267"/>
<stop offset="1" stop-color="#7ACAFB" stop-opacity="0.24"/>
</linearGradient>
<linearGradient id="paint16_linear_5_845" x1="512.712" y1="244.182" x2="512.712" y2="600.581" gradientUnits="userSpaceOnUse">
<stop stop-color="#054267"/>
<stop offset="1" stop-color="#7ACAFB" stop-opacity="0.24"/>
</linearGradient>
<linearGradient id="paint17_linear_5_845" x1="524.982" y1="260.394" x2="524.982" y2="611.642" gradientUnits="userSpaceOnUse">
<stop stop-color="#054267"/>
<stop offset="1" stop-color="#7ACAFB" stop-opacity="0.24"/>
</linearGradient>
<linearGradient id="paint18_linear_5_845" x1="538.505" y1="276.606" x2="538.505" y2="623.245" gradientUnits="userSpaceOnUse">
<stop stop-color="#054267"/>
<stop offset="1" stop-color="#7ACAFB" stop-opacity="0.24"/>
</linearGradient>
<linearGradient id="paint19_linear_5_845" x1="553.88" y1="292.818" x2="553.88" y2="635.509" gradientUnits="userSpaceOnUse">
<stop stop-color="#054267"/>
<stop offset="1" stop-color="#7ACAFB" stop-opacity="0.24"/>
</linearGradient>
<linearGradient id="paint20_linear_5_845" x1="571.788" y1="309.031" x2="571.788" y2="647.944" gradientUnits="userSpaceOnUse">
<stop stop-color="#054267"/>
<stop offset="1" stop-color="#7ACAFB" stop-opacity="0.24"/>
</linearGradient>
<linearGradient id="paint21_linear_5_845" x1="591.952" y1="325.243" x2="591.952" y2="660.512" gradientUnits="userSpaceOnUse">
<stop stop-color="#054267"/>
<stop offset="1" stop-color="#7ACAFB" stop-opacity="0.24"/>
</linearGradient>
</defs>
</svg>
