<svg width="265" height="266" viewBox="0 0 265 266" fill="none" xmlns="http://www.w3.org/2000/svg">
<path d="M232.058 163.059L230.602 168.865C228.728 168.271 227.17 167.324 225.928 166.021C224.683 164.732 223.854 163.155 223.441 161.291C223.024 159.439 223.107 157.354 223.688 155.037C224.142 153.224 224.86 151.678 225.842 150.397C226.836 149.119 228.051 148.116 229.485 147.389C230.916 146.674 232.534 146.261 234.337 146.149C236.14 146.037 238.077 146.24 240.148 146.76L242.11 147.251C244.181 147.771 245.983 148.512 247.517 149.474C249.06 150.453 250.293 151.601 251.215 152.919C252.133 154.25 252.729 155.714 253.003 157.31C253.277 158.906 253.192 160.59 252.747 162.364C252.157 164.72 251.231 166.6 249.971 168.004C248.708 169.421 247.213 170.388 245.488 170.905C243.759 171.434 241.913 171.55 239.952 171.25L241.413 165.425C242.568 165.646 243.589 165.661 244.476 165.471C245.376 165.284 246.126 164.845 246.725 164.156C247.334 163.483 247.801 162.5 248.126 161.205C248.369 160.234 248.4 159.341 248.22 158.525C248.039 157.709 247.641 156.963 247.027 156.286C246.412 155.609 245.573 155.006 244.508 154.478C243.453 153.966 242.175 153.521 240.673 153.145L238.673 152.644C237.21 152.277 235.895 152.064 234.726 152.005C233.57 151.949 232.554 152.052 231.677 152.314C230.809 152.591 230.09 153.044 229.52 153.672C228.959 154.315 228.549 155.155 228.29 156.191C227.985 157.408 227.927 158.46 228.118 159.347C228.308 160.234 228.733 160.98 229.393 161.586C230.05 162.205 230.938 162.696 232.058 163.059Z" fill="#02283F"/>
<path d="M239.842 193.452L214.165 179.656L216.998 174.383L242.675 188.179L239.842 193.452ZM235.597 201.353L231.453 199.126L242.709 178.175L246.853 180.402L235.597 201.353Z" fill="#02283F"/>
<path d="M209.961 202.712L214.939 197.2L218.416 200.339L213.438 205.851C212.669 206.703 212.181 207.522 211.976 208.307C211.78 209.101 211.823 209.851 212.104 210.554C212.386 211.258 212.843 211.896 213.477 212.469C214.121 213.05 214.832 213.468 215.61 213.721C216.389 213.974 217.188 213.986 218.008 213.755C218.827 213.524 219.622 212.983 220.391 212.131L223.974 208.164L205.833 191.781L209.858 187.324L231.491 206.86L223.883 215.284C222.353 216.978 220.736 218.152 219.03 218.805C217.326 219.478 215.648 219.653 213.997 219.331C212.346 219.009 210.832 218.226 209.455 216.983C208.058 215.721 207.141 214.308 206.702 212.743C206.263 211.178 206.316 209.536 206.862 207.816C207.399 206.107 208.432 204.405 209.961 202.712Z" fill="#02283F"/>
<path d="M197.27 231.417L190.626 206.869L195.963 203.362L202.918 233.67L199.522 235.902L197.27 231.417ZM178.496 214.84L198.408 230.669L201.68 234.484L198.251 236.737L173.142 218.357L178.496 214.84ZM184.756 223.71L182.172 219.778L195.039 211.324L197.622 215.256L184.756 223.71Z" fill="#02283F"/>
<path d="M177.957 247.099L169.48 239.246L167.574 250.642L161.075 252.86L164.421 236.446L151.452 225.345L158.008 223.108L166.7 231.099L168.693 219.461L175.287 217.211L171.791 233.93L184.493 244.868L177.957 247.099Z" fill="#02283F"/>
<path d="M128.082 242.146L127.992 240.767C127.847 238.557 128.016 236.553 128.5 234.755C128.984 232.958 129.731 231.404 130.742 230.094C131.753 228.797 132.997 227.772 134.472 227.02C135.934 226.269 137.584 225.833 139.422 225.712C141.246 225.592 142.939 225.809 144.5 226.361C146.048 226.915 147.415 227.768 148.601 228.921C149.787 230.087 150.745 231.529 151.473 233.246C152.188 234.965 152.618 236.93 152.763 239.14L152.853 240.519C152.999 242.743 152.83 244.747 152.345 246.531C151.862 248.328 151.114 249.882 150.104 251.192C149.08 252.503 147.837 253.534 146.375 254.286C144.899 255.038 143.249 255.474 141.425 255.594C139.587 255.715 137.894 255.498 136.346 254.945C134.785 254.392 133.418 253.532 132.245 252.365C131.058 251.199 130.107 249.757 129.392 248.038C128.665 246.334 128.229 244.37 128.082 242.146ZM134.045 240.37L134.138 241.788C134.239 243.333 134.469 244.682 134.825 245.836C135.182 246.989 135.659 247.948 136.258 248.711C136.856 249.474 137.562 250.03 138.374 250.378C139.186 250.739 140.099 250.886 141.111 250.82C142.123 250.753 143.009 250.488 143.767 250.023C144.513 249.573 145.133 248.93 145.627 248.095C146.107 247.261 146.449 246.249 146.651 245.059C146.854 243.869 146.905 242.501 146.803 240.956L146.71 239.538C146.609 238.006 146.38 236.657 146.023 235.49C145.666 234.337 145.188 233.372 144.589 232.595C143.99 231.832 143.285 231.27 142.472 230.908C141.659 230.547 140.746 230.4 139.734 230.466C138.722 230.533 137.837 230.798 137.078 231.263C136.319 231.727 135.7 232.376 135.22 233.21C134.74 234.058 134.399 235.077 134.197 236.267C133.995 237.471 133.944 238.838 134.045 240.37Z" fill="#02283F"/>
<path d="M111.467 236.991L118.817 238.422L118.068 242.478L111.898 241.276C110.81 241.065 109.893 241.029 109.145 241.169C108.394 241.322 107.796 241.634 107.351 242.105C106.89 242.586 106.584 243.22 106.43 244.006C106.257 244.896 106.287 245.65 106.521 246.267C106.741 246.881 107.181 247.381 107.84 247.768C108.485 248.152 109.359 248.451 110.459 248.665L114.546 249.461L119.218 225.468L125.113 226.615L119.542 255.227L109.56 253.283C107.896 252.959 106.44 252.512 105.191 251.943C103.929 251.371 102.902 250.675 102.11 249.854C101.318 249.034 100.775 248.085 100.482 247.008C100.186 245.944 100.168 244.744 100.428 243.408C100.658 242.229 101.138 241.194 101.869 240.303C102.587 239.409 103.577 238.759 104.839 238.352C106.088 237.943 107.629 237.882 109.463 238.172L111.467 236.991ZM114.168 224.484L122.873 226.179L119.678 230.33L113.272 229.083C112.237 228.881 111.361 228.88 110.642 229.08C109.92 229.293 109.346 229.657 108.92 230.173C108.493 230.688 108.207 231.319 108.062 232.066C107.899 232.904 107.901 233.659 108.069 234.331C108.225 235 108.578 235.559 109.13 236.006C109.68 236.466 110.459 236.795 111.467 236.991L117.146 238.097L116.319 242.137L109.245 240.76L108.199 238.904C106.451 238.591 105.109 238.01 104.173 237.162C103.222 236.324 102.601 235.353 102.313 234.25C102.012 233.145 101.973 232.015 102.198 230.863C102.555 229.029 103.255 227.561 104.299 226.458C105.341 225.37 106.696 224.661 108.364 224.333C110.019 224.003 111.954 224.053 114.168 224.484Z" fill="#02283F"/>
<path d="M80.9527 238.522L98.5751 220.187L104.33 222.956L81.9298 244.524L78.2678 242.762L80.9527 238.522ZM85.4968 213.892L82.1794 239.112L80.5949 243.882L76.8969 242.102L79.7243 211.114L85.4968 213.892ZM81.116 223.826L83.1562 219.586L97.0283 226.263L94.988 230.502L81.116 223.826Z" fill="#02283F"/>
<path d="M47.2328 220.98L68.2883 200.824L72.4415 205.162L51.386 225.319L47.2328 220.98ZM35.3547 208.573L55.4439 204.805L60.5247 210.113L57.1896 214.359L53.7978 210.816L40.3939 213.837L35.3547 208.573ZM60.6879 192.884L56.9221 207.797L50.9478 207.752L55.7595 187.736L60.6879 192.884Z" fill="#02283F"/>
<path d="M31.3844 174.716L32.5915 174.044C34.5274 172.967 36.4111 172.263 38.2426 171.931C40.0741 171.599 41.7982 171.609 43.4149 171.962C45.02 172.321 46.4782 173.007 47.7894 174.018C49.0942 175.018 50.1944 176.323 51.0899 177.932C51.979 179.53 52.5077 181.153 52.6761 182.8C52.838 184.436 52.6517 186.036 52.1174 187.601C51.5715 189.173 50.678 190.655 49.4371 192.048C48.1897 193.43 46.5981 194.659 44.6621 195.736L43.455 196.408C41.5074 197.492 39.6237 198.196 37.8039 198.522C35.9725 198.854 34.2484 198.843 32.6316 198.49C31.0084 198.126 29.5444 197.444 28.2396 196.444C26.9283 195.432 25.8282 194.128 24.9391 192.53C24.0435 190.92 23.5148 189.298 23.3529 187.662C23.1846 186.015 23.3766 184.411 23.9291 182.851C24.4751 181.28 25.3717 179.803 26.6191 178.422C27.8484 177.035 29.4368 175.8 31.3844 174.716ZM35.541 179.345L34.299 180.036C32.9461 180.789 31.8247 181.573 30.9347 182.389C30.0447 183.205 29.3829 184.047 28.9492 184.915C28.5155 185.782 28.3152 186.657 28.3482 187.54C28.3696 188.429 28.6268 189.317 29.12 190.203C29.6133 191.09 30.2321 191.776 30.9765 192.263C31.7027 192.745 32.5488 193.03 33.5146 193.119C34.4739 193.196 35.5349 193.072 36.6974 192.745C37.86 192.419 39.1177 191.88 40.4705 191.127L41.7126 190.436C43.0538 189.69 44.1752 188.905 45.0768 188.083C45.9669 187.267 46.6345 186.422 47.0798 185.548C47.5135 184.68 47.7197 183.802 47.6983 182.912C47.677 182.023 47.4197 181.135 46.9265 180.249C46.4333 179.363 45.8145 178.676 45.07 178.189C44.3256 177.702 43.4738 177.42 42.5144 177.343C41.5434 177.273 40.4767 177.4 39.3141 177.726C38.1399 178.059 36.8822 178.599 35.541 179.345Z" fill="#02283F"/>
<path d="M14.7636 169.747L13.7537 164.763L33.2412 153.175L10.7796 150.087L9.76973 145.103L40.4289 149.635L41.24 153.637L14.7636 169.747ZM15.3083 172.435L14.3023 167.471L34.5643 162.425L42.6872 160.779L43.8761 166.646L15.3083 172.435ZM10.2309 147.379L9.22104 142.395L37.7888 136.606L38.9816 142.493L30.8586 144.139L10.2309 147.379Z" fill="#02283F"/>
<path d="M11.7431 107.225L40.7096 110.477L40.0396 116.445L15.7483 113.719L14.4419 125.357L38.7332 128.084L38.0632 134.052L9.09668 130.8L11.7431 107.225Z" fill="#02283F"/>
<path d="M23.2672 88.0672L42.7427 104.42L40.3654 110.348L17.3438 89.4445L18.8567 85.6727L23.2672 88.0672ZM48.1459 90.9495L22.7604 89.3307L17.8953 88.0696L19.4231 84.2605L50.5308 85.0037L48.1459 90.9495ZM37.9411 87.2446L42.3075 88.996L36.5764 103.285L32.21 101.533L37.9411 87.2446Z" fill="#02283F"/>
<path d="M48.4274 59.5245L52.1545 62.3624L42.9371 74.4674L39.21 71.6295L48.4274 59.5245ZM30.8444 63.0199L54.035 80.6785L50.3965 85.4568L27.2059 67.7982L30.8444 63.0199ZM41.5778 48.9239L64.7684 66.5825L61.1421 71.3449L37.9515 53.6863L41.5778 48.9239Z" fill="#02283F"/>
<path d="M53.5187 38.1163L72.7383 60.0306L68.238 63.9775L49.0184 42.0632L53.5187 38.1163Z" fill="#02283F"/>
<path d="M83.4843 39.9431L76.7036 44.0504L74.5385 44.3788C72.2131 44.9448 70.1575 44.9259 68.372 44.3223C66.5978 43.7118 65.1333 42.4533 63.9786 40.5469C62.9621 38.8688 62.4826 37.24 62.5401 35.6604C62.602 34.0625 63.1416 32.5576 64.1588 31.1456C65.1874 29.7268 66.6492 28.4434 68.5442 27.2956L77.2428 22.0266L92.3444 46.958L87.1903 50.0799L74.5261 29.1725L70.9816 31.3195C69.5775 32.1701 68.7553 33.144 68.515 34.2414C68.2747 35.3388 68.5418 36.5267 69.3162 37.8053C69.8832 38.7413 70.5041 39.4185 71.1788 39.8369C71.8465 40.2438 72.5671 40.4158 73.3405 40.3531C74.107 40.2789 74.9411 39.9687 75.8429 39.4224L81.1854 36.1864L83.4843 39.9431ZM77.2807 40.8687L78.4917 55.3489L72.9267 58.7198L71.7328 44.2292L77.2807 40.8687Z" fill="#02283F"/>
<path d="M115.788 9.98892L116.792 14.585L103.962 17.3894L109.182 41.2694L103.334 42.5476L97.1099 14.0715L115.788 9.98892Z" fill="#02283F"/>
<path d="M136.262 14.2219L127.684 38.1624L121.301 37.9899L132.915 9.1447L136.977 9.25449L136.262 14.2219ZM142.193 38.5545L134.901 14.1851L134.395 9.18472L138.498 9.29559L148.597 38.7276L142.193 38.5545ZM142.126 27.6982L141.999 32.401L126.61 31.9852L126.737 27.2823L142.126 27.6982Z" fill="#02283F"/>
<path d="M159.991 11.4444L164.804 13.0868L164.977 35.759L178.976 17.9236L183.788 19.566L164.407 43.7509L160.542 42.4318L159.991 11.4444ZM157.396 10.5586L162.189 12.1945L156.323 32.2342L153.646 40.078L147.981 38.1447L157.396 10.5586ZM181.59 18.8159L186.403 20.4583L176.988 48.0444L171.304 46.1046L173.981 38.2607L181.59 18.8159Z" fill="#02283F"/>
<path d="M202.995 37.2328L182.316 52.0344L177.165 48.2589L203.133 31.153L206.41 33.5556L202.995 37.2328ZM194.022 60.6152L201.897 36.4279L204.328 32.0288L207.638 34.4551L199.189 64.4026L194.022 60.6152ZM200.146 51.6509L197.365 55.4453L184.948 46.3437L187.729 42.5494L200.146 51.6509Z" fill="#02283F"/>
<path d="M226.224 51.2646L202.589 68.3249L199.074 63.4552L222.708 46.3949L226.224 51.2646ZM219.011 63.3348L215.359 65.9712L210.707 59.527L214.359 56.8906L219.011 63.3348ZM231.409 82.1865L230.289 82.995C228.493 84.2917 226.705 85.2122 224.925 85.7563C223.145 86.3005 221.432 86.4921 219.785 86.3312C218.148 86.1625 216.62 85.6527 215.199 84.8018C213.786 83.9617 212.541 82.795 211.463 81.3016C210.393 79.8191 209.677 78.2696 209.317 76.6532C208.965 75.0476 208.958 73.431 209.298 71.8033C209.656 70.1786 210.373 68.6073 211.45 67.0892C212.527 65.5711 213.964 64.1637 215.76 62.867L216.88 62.0585C218.687 60.754 220.475 59.8335 222.245 59.2972C224.025 58.753 225.738 58.5614 227.385 58.7223C229.04 58.894 230.574 59.3999 231.987 60.24C233.407 61.0909 234.653 62.2576 235.723 63.7401C236.801 65.2335 237.516 66.783 237.869 68.3886C238.229 70.005 238.226 71.6201 237.86 73.234C237.502 74.8586 236.785 76.43 235.708 77.9481C234.649 79.4692 233.217 80.882 231.409 82.1865ZM226.739 78.0766L227.892 77.2447C229.147 76.3386 230.169 75.4282 230.957 74.5135C231.745 73.5988 232.304 72.6853 232.633 71.7729C232.962 70.8606 233.058 69.968 232.922 69.0952C232.797 68.2145 232.437 67.363 231.843 66.5406C231.25 65.7181 230.555 65.1088 229.758 64.7124C228.981 64.3191 228.107 64.135 227.137 64.16C226.176 64.1958 225.137 64.4438 224.02 64.904C222.904 65.3641 221.718 66.0473 220.463 66.9534L219.31 67.7854C218.066 68.6837 217.044 69.5941 216.245 70.5166C215.457 71.4312 214.893 72.3486 214.553 73.2688C214.224 74.1812 214.122 75.0777 214.247 75.9583C214.373 76.839 214.732 77.6905 215.326 78.5129C215.92 79.3354 216.611 79.9393 217.399 80.3248C218.196 80.7211 219.075 80.9014 220.037 80.8655C221.017 80.8327 222.065 80.5862 223.182 80.1261C224.309 79.6581 225.495 78.975 226.739 78.0766Z" fill="#02283F"/>
<path d="M241.169 105.784L236.697 107.18L232.165 92.656L236.637 91.2604L241.169 105.784ZM248.5 89.4247L220.675 98.108L218.886 92.3749L246.711 83.6916L248.5 89.4247ZM253.778 106.338L225.953 115.021L224.17 109.307L251.995 100.624L253.778 106.338Z" fill="#02283F"/>
</svg>
