<svg xmlns="http://www.w3.org/2000/svg" width="200" height="200" fill="#017113" xmlns:v="https://vecta.io/nano"><path d="M189.967 110.591c-.127 1.093-.396 1.968-.808 2.624-.397.676-.842 1.262-1.336 1.758-.287.302-.349.547-.186.733.178.206.619.383 1.323.532l-.067.571-2.35-.349-3.647-.45.066-.571c.771.006 1.429-.026 1.974-.097a5.7 5.7 0 0 0 1.504-.379c.441-.184.851-.471 1.232-.863.462-.366.824-.811 1.086-1.334s.428-1.083.497-1.679c.104-.894-.048-1.683-.455-2.368-.391-.683-.969-1.271-1.734-1.762-.767-.475-1.653-.864-2.658-1.165-.989-.3-2.03-.513-3.122-.64a18.42 18.42 0 0 0-3.236-.1c-1.032.081-1.969.274-2.81.579-.843.322-1.533.778-2.071 1.37s-.859 1.326-.961 2.204c-.063.546-.027 1.104.108 1.673.15.588.401 1.104.752 1.548a3.73 3.73 0 0 0 1.685 1.53c.718.318 1.683.606 2.895.865l-.067.571-3.827-.42-2.442-.209.066-.571c.72.017 1.18-.047 1.382-.191.199-.128.204-.388.014-.779-.359-.663-.664-1.361-.914-2.095-.236-.715-.292-1.611-.167-2.687.203-1.755.738-3.253 1.603-4.495.864-1.225 2.008-2.124 3.434-2.696s3.082-.749 4.969-.529c1.854.215 3.433.777 4.737 1.683 1.303.924 2.267 2.085 2.893 3.483.625 1.415.837 2.983.638 4.705zm-7.426 26.546l-2.252-.977-1.683-.638-.996-.335-.816-.243.196-.541c1.407.227 2.565.284 3.474.171.904-.097 1.609-.356 2.115-.775.522-.413.913-.98 1.174-1.701l.196-.541-13.419-4.871c-.626-.228-1.119-.336-1.478-.324-.364.027-.666.201-.906.522-.225.326-.469.831-.735 1.515l-.47-.17.753-1.935.934-2.506.861-2.454.625-1.874.47.171c-.24.71-.377 1.263-.414 1.658-.021.4.103.72.371.959s.715.472 1.342.7l13.418 4.871.187-.517c.261-.721.323-1.408.187-2.06-.12-.646-.497-1.297-1.128-1.952-.616-.649-1.539-1.356-2.768-2.122l.195-.541c.208.111.469.224.782.337l.979.382 1.709.567 2.345.719-.897 2.334-.959 2.577-.843 2.327-.842 2.328-.912 2.594-.795 2.345zm-2.188 4.81l-.95 1.38-1.173 1.772-1.24 1.967-.847 1.358c-1.257 1.946-2.581 3.153-3.974 3.621s-2.699.308-3.916-.48c-.503-.327-.971-.769-1.404-1.327-.419-.55-.713-1.217-.881-2.001-.164-.761-.13-1.643.1-2.645s.744-2.12 1.539-3.352l1.383-2.142.42.271-1.247 1.933c-.534.826-.747 1.571-.641 2.236.098.679.405 1.295.921 1.847.507.567 1.117 1.081 1.83 1.543 1.329.861 2.449 1.308 3.36 1.342s1.673-.425 2.287-1.377c.353-.546.465-.981.335-1.303-.138-.308-.571-.697-1.298-1.168l-10.282-6.66c-.546-.353-.988-.56-1.326-.62s-.653.043-.945.311-.648.712-1.068 1.333l-.462-.299 1.127-1.653 1.417-2.15 1.118-1.778.961-1.581.42.272c-.261.466-.422.838-.483 1.117s.012.534.219.767c.198.247.548.534 1.052.86l10.407 6.741c.518.335.923.538 1.215.608a.83.83 0 0 0 .802-.136c.242-.161.511-.453.805-.878l.419.271zm-17.319 22.761l-15.275-6.943c-.585-.266-1.061-.383-1.426-.352-.366.055-.638.159-.816.31l-.35-.358 1.303-1.206 1.464-1.4 1.535-1.54 1.126-1.173.349.357c-.583.619-.865 1.094-.845 1.424.019.354.445.719 1.277 1.094l11.159 5.341.132.78-4.203-9.742c-.379-.913-.742-1.607-1.091-2.082-.36-.464-.704-.757-1.032-.878-.34-.11-.682-.09-1.025.059-.344.173-.7.429-1.068.767l-.35-.358 1.16-1.066 1.106-1.05.733-.753a6.49 6.49 0 0 0 .572-.63l.349.357c-.203.293-.302.705-.296 1.236s.205 1.246.595 2.147l6.149 14.452-.625.577-.607.63zm-8.622-6.322l-.349-.358 5.32-5.214.171.532-5.142 5.04z"/><path d="M148.353 176.369l-.27-.45c.642-.387 1.018-.7 1.126-.94.103-.218-.035-.417-.415-.596l-15.928-7.31c-.525-.228-.917-.362-1.174-.402s-.537.012-.839.155l-.27-.45 1.268-.705 1.718-.975 1.945-1.229 1.452-.932.27.45c-.657.395-1.052.692-1.187.889-.14.22-.02.42.36.6l16.001 7.383c.519.251.908.397 1.165.436s.54-.023.848-.189l.27.45-1.345.722-1.769 1.036-1.83 1.129-1.396.928zm-4.732-7.452l-.133-.124-.252-.227-.12-.103.38-4.227c.108-1.115.035-1.966-.219-2.552-.246-.572-.616-.913-1.11-1.024-.5-.089-1.077.035-1.731.37l-.257-.429.784-.442.977-.559.955-.546.707-.425 1.101-.692.831-.558.258.429c-.397.472-.724 1.077-.981 1.815-.249.753-.434 1.642-.557 2.669l-.633 6.625zm-2.971 12.058l-.257-.428c.394-.413.702-.968.925-1.666.208-.689.349-1.426.424-2.21l.693-6.719.252.227.232.24-.419 4.308c-.132 1.013-.101 1.792.09 2.338.177.555.483.886.917.995s.953 0 1.555-.323l.258.428-.926.499-.977.558-.835.503-1.123.705-.809.545zm-13.948 5.759c-1.692.508-3.272.608-4.738.3-1.483-.303-2.768-.996-3.858-2.079-1.084-1.066-1.901-2.518-2.45-4.354-.535-1.788-.644-3.461-.327-5.018s1.009-2.905 2.078-4.043c1.053-1.134 2.401-1.948 4.045-2.441 1.692-.508 3.279-.61 4.762-.307a7.54 7.54 0 0 1 3.834 2.086c1.089 1.082 1.906 2.534 2.45 4.354.535 1.788.644 3.461.327 5.018-.333 1.561-1.018 2.907-2.054 4.036-1.053 1.134-2.409 1.95-4.069 2.448zm-.033-.46c.894-.268 1.568-.862 2.024-1.782.439-.915.654-2.058.644-3.43-.027-1.367-.288-2.881-.785-4.541-.506-1.693-1.148-3.11-1.924-4.251-.788-1.121-1.627-1.922-2.519-2.403-.903-.459-1.778-.562-2.624-.308-.894.268-1.56.86-2 1.775-.455.919-.67 2.063-.644 3.43.015 1.387.269 2.903.761 4.548.511 1.708 1.16 3.123 1.948 4.244.771 1.126 1.609 1.918 2.512 2.378.892.481 1.761.594 2.607.34zm-14.196 3.661l-1.701.029-2.099.072-2.321.133-1.597.099c-2.065.096-3.622-.199-4.671-.884-1.066-.685-1.626-1.602-1.679-2.75-.027-.583.12-1.182.442-1.798s.838-1.173 1.55-1.673 1.644-.886 2.799-1.156l-.002-.05c-1.57-.044-2.824-.27-3.76-.677s-1.619-.917-2.048-1.531-.659-1.263-.691-1.946c-.048-1.048.185-1.944.702-2.685s1.282-1.328 2.296-1.758c1.015-.415 2.239-.655 3.671-.721l1.724-.055 2.724-.077 2.147-.124 1.696-.129.023.499c-.532.058-.928.143-1.19.256s-.427.32-.496.623c-.086.305-.116.757-.088 1.356l.573 12.387c.029.616.099 1.063.212 1.341.097.296.29.487.578.574.271.104.666.153 1.182.145l.024.5zm-7.416-.156c.65-.031 1.068-.192 1.254-.484.17-.292.235-.87.195-1.736l-.573-12.387c-.027-.582-.089-1.022-.186-1.318-.113-.295-.289-.487-.527-.576-.254-.088-.623-.121-1.106-.099-1.198.056-2.055.471-2.57 1.246-.53.792-.763 1.887-.699 3.286.06 1.282.43 2.257 1.112 2.927.665.669 1.738.97 3.22.901l2.123-.098.009.199.01.225-2.148.1c-.782.036-1.373.247-1.772.633-.399.402-.667.915-.805 1.539a7.94 7.94 0 0 0-.156 2.034c.057 1.232.291 2.147.703 2.746.412.614 1.051.902 1.916.862zm-21.52-.784l-3.166-16.49c-.122-.632-.301-1.089-.538-1.369-.256-.267-.498-.43-.724-.489l.09-.492 1.737.369 1.987.39 2.144.367 1.607.243-.09.492c-.842-.12-1.392-.077-1.65.13-.277.221-.329.779-.153 1.675l2.093 12.202-.559.558 5.515-9.055c.525-.835.881-1.533 1.068-2.091.17-.562.21-1.012.119-1.351-.107-.342-.321-.609-.641-.804-.34-.18-.754-.324-1.243-.431l.09-.491 1.54.333 1.496.299 1.037.164a6.45 6.45 0 0 0 .845.104l-.09.492c-.356.003-.749.159-1.179.471s-.899.885-1.408 1.724l-8.233 13.361-.832-.178-.865-.133zm.173-10.694l.09-.492 7.328 1.342-.336.447-7.082-1.297zm-27.213 1.039l.248-.435c.471.251.859.396 1.162.435.281.045.532-.041.753-.261.213-.204.472-.575.777-1.11l6.141-10.773c.297-.521.484-.933.56-1.235.062-.31.002-.575-.18-.794s-.496-.476-.943-.77l.248-.434 1.451.887 1.789 1.052 1.987 1.108 1.479.789-.248.434c-.48-.236-.86-.377-1.141-.422s-.532.041-.753.26c-.235.211-.502.577-.799 1.099l-6.141 10.772c-.305.536-.485.952-.538 1.248-.076.302-.016.566.18.794.174.234.481.486.921.757l-.248.434-1.429-.875-1.962-1.151-1.814-1.009-1.5-.8zm5.084-6.596c-1.157-.662-2.113-1.324-2.868-1.986-.777-.656-1.302-1.35-1.576-2.082-.296-.727-.303-1.556-.02-2.489l1.03-3.27c.223-.66.328-1.147.315-1.462-.021-.3-.176-.532-.465-.698-.182-.085-.351-.124-.508-.118-.18.013-.387.057-.623.134l-.155-.435c.638-.211 1.239-.289 1.803-.235s1.164.262 1.801.626c.781.447 1.334.975 1.659 1.583.317.623.294 1.436-.067 2.439l-1.308 3.658c-.229.637-.345 1.194-.349 1.672a2.01 2.01 0 0 0 .41 1.3c.291.398.785.795 1.479 1.192l.846.484-.211.369-1.194-.682zm.927.04l-.21.369c-.63-.341-1.29-.497-1.977-.468-.696.043-1.528.239-2.494.589l-2.159.81c-.936.328-1.579.7-1.93 1.113-.359.429-.476.852-.349 1.269s.475.8 1.045 1.145l-.235.413-.995-.627-1.008-.605-1.15-.658-1.163-.636-.936-.478.235-.413c.535.172 1.15.255 1.844.249s1.532-.18 2.513-.521l7.169-2.581 1.801 1.03zm-25.5-7.374c-1.262-1.236-2.112-2.572-2.552-4.006a7.53 7.53 0 0 1-.048-4.388c.408-1.467 1.282-2.886 2.621-4.257 1.304-1.335 2.713-2.241 4.227-2.718s3.027-.522 4.538-.138c1.5.373 2.862 1.16 4.088 2.362 1.262 1.237 2.118 2.578 2.57 4.024a7.56 7.56 0 0 1 .03 4.37c-.42 1.479-1.293 2.898-2.621 4.257-1.304 1.336-2.713 2.241-4.227 2.718-1.526.465-3.033.517-4.52.155-1.5-.372-2.868-1.166-4.106-2.379zm.386-.252c.667.654 1.512.957 2.536.91 1.012-.058 2.115-.424 3.309-1.097 1.182-.686 2.378-1.648 3.59-2.888 1.234-1.264 2.163-2.513 2.785-3.746.599-1.233.893-2.357.882-3.371-.035-1.015-.367-1.831-.998-2.449-.666-.653-1.506-.951-2.518-.893-1.024.047-2.127.413-3.309 1.098-1.205.686-2.408 1.642-3.608 2.87-1.246 1.276-2.169 2.531-2.767 3.764-.611 1.221-.899 2.339-.864 3.353.011 1.015.332 1.831.963 2.449zm-21.11-29.554l.437-.243c.273.458.526.775.757.952.217.184.481.247.791.188.288-.065.701-.248 1.24-.548l10.831-6.037c.524-.292.897-.548 1.119-.767.213-.233.299-.491.257-.772s-.178-.664-.408-1.147l.437-.243.818 1.576 1.022 1.891 1.114 1.955.869 1.462-.437.243c-.304-.479-.569-.818-.794-1.017a.9.9 0 0 0-.816-.232c-.311.058-.728.234-1.252.526l-11.814 6.585-.085-.153 17.161-2.468.194.35-10.785 13.739 10.46-5.83c.801-.446 1.395-.835 1.783-1.166.374-.322.574-.682.602-1.079.005-.403-.135-.946-.418-1.628l.437-.243a12.53 12.53 0 0 0 .563 1.117l.682 1.28.592 1.015.529.85-.437.243c-.332-.426-.65-.706-.954-.842s-.673-.131-1.107.016c-.456.139-1.034.404-1.732.794l-9.827 5.477c-.539.3-.907.563-1.106.788-.221.219-.307.477-.257.773.028.29.16.665.396 1.125l-.437.243-.442-.898-.549-1.04-1.042-1.823-.942-1.593 8.522-10.761.806.267-13.948 2.022-.425-.765-.437-.787-1.066-1.867-.906-1.528zM9.866 111.51l.488-.109c.132.517.284.893.456 1.128.155.238.39.374.705.406.295.02.743-.037 1.345-.172l12.103-2.698c.586-.131 1.016-.269 1.291-.416.271-.163.427-.385.466-.667s.018-.687-.065-1.215l.488-.109.32 1.67.464 2.202.48 2.045.412 1.624-.488.109c-.145-.497-.295-.865-.45-1.104-.159-.254-.394-.39-.705-.406-.314-.032-.765.017-1.35.147l-12.103 2.699c-.602.134-1.038.283-1.309.445a.9.9 0 0 0-.455.717c-.052.302-.017.729.106 1.282l.559 2.514c.123.553.274.964.453 1.231a.9.9 0 0 0 .71.431c.315.032.773-.019 1.375-.153l12.103-2.698c.586-.131 1.016-.27 1.291-.416.271-.163.427-.386.466-.668s.018-.687-.065-1.215l.488-.108.32 1.67.426 2.031.518 2.215.412 1.625-.488.109c-.145-.498-.295-.865-.45-1.104a.83.83 0 0 0-.705-.406c-.315-.033-.765.016-1.35.147l-12.103 2.698c-.602.135-1.03.281-1.285.441a.83.83 0 0 0-.466.667c-.056.286-.036.683.06 1.191l-.488.108-.315-1.646-.469-2.226-.659-2.85-.553-2.259-.45-2.256-.599-2.812-.512-2.191-.418-1.648z"/><path d="M9.495 97.515l15.808-5.649c.606-.217 1.03-.464 1.27-.741.225-.294.349-.557.371-.79l.5.014-.098 1.773-.08 2.024-.034 2.175.006 1.626-.5-.014c-.01-.851-.138-1.388-.382-1.611-.26-.24-.82-.206-1.678.105l-11.735 3.934-.638-.467 9.794 4.066c.907.391 1.65.637 2.231.736.581.082 1.032.053 1.353-.089a1.41 1.41 0 0 0 .696-.756c.127-.364.205-.795.235-1.294l.5.013-.092 1.573-.066 1.524-.003 1.05a6.48 6.48 0 0 0 .027.851l-.5-.013c-.057-.352-.273-.716-.646-1.093s-1.013-.753-1.92-1.127L9.448 99.239l.048-.849-.001-.875zm10.593-1.464l.5.013-.201 7.448-.493-.264.194-7.197zm9.856-16.02l-.482-.133c.109-.523.151-.927.125-1.21s-.172-.506-.439-.666c-.263-.176-.683-.344-1.262-.503l-11.955-3.294c-.594-.164-1.042-.235-1.341-.214-.311.001-.553.124-.724.371-.183.226-.351.586-.504 1.08l-.482-.133.512-1.674.6-2.091.545-2.08.389-1.604.482.133c-.125.519-.169.93-.132 1.234.026.284.172.506.439.666.251.156.674.315 1.268.479l11.955 3.294c.579.159 1.023.239 1.335.238.316-.017.557-.14.724-.371s.337-.599.511-1.104l.482.133-.485 1.578-.593 2.067-.552 2.104-.415 1.701zm-2.807 10.222l-.482-.133c.109-.523.151-.927.125-1.21s-.172-.505-.439-.666c-.263-.176-.683-.344-1.262-.503l-11.955-3.294c-.594-.164-1.042-.235-1.341-.214-.311.001-.553.124-.724.371-.183.226-.351.586-.504 1.08l-.482-.133.492-1.602.627-2.187.525-2.008.402-1.653.482.133c-.125.519-.169.93-.132 1.234.026.284.172.506.439.666.251.156.674.315 1.268.479l11.955 3.294c.579.159 1.023.239 1.335.238.316-.017.557-.14.724-.371s.337-.599.511-1.104l.482.133-.498 1.626-.574 1.994-.578 2.2-.395 1.628zm-7.22-6.372l-.482-.133 2.615-9.522.482.133-2.615 9.522zm.653-27.505l.445.227c-.227.483-.352.877-.377 1.183-.032.283.067.53.297.741.215.203.597.445 1.146.725l11.047 5.632c.535.272.954.44 1.259.502.313.047.574-.025.784-.218s.451-.519.722-.979l.445.227-.815 1.493-.962 1.838-1.008 2.04-.714 1.516-.445-.227c.212-.491.334-.877.365-1.161s-.067-.53-.297-.741c-.222-.225-.6-.474-1.135-.747L20.28 62.795c-.549-.28-.973-.44-1.271-.48-.305-.062-.566.011-.784.218-.225.185-.462.504-.71.957l-.445-.227.803-1.471 1.053-2.017.918-1.861.726-1.538zm11.847-17.085l.395.306c-.313.432-.504.79-.575 1.072-.084.272-.038.54.138.803.173.239.503.548.991.925l9.804 7.592c.474.367.856.61 1.144.728.298.104.569.082.81-.068s.539-.426.891-.828l.395.306a22.44 22.44 0 0 0-1.078 1.315l-1.394 1.766-1.248 1.658-.999 1.377-.395-.306c.289-.429.476-.78.56-1.053.094-.285.048-.553-.138-.803-.176-.263-.501-.578-.976-.945l-9.804-7.592c-.685-.531-1.201-.803-1.547-.819-.336-.028-.703.215-1.1.729-.692.897-.898 1.75-.616 2.558s.93 1.605 1.944 2.391c.619.48 1.242.846 1.868 1.099.613.243 1.228.277 1.847.102.606-.184 1.209-.666 1.81-1.444l1.314-1.702.198.153.198.153-1.466 1.9c-.906 1.174-1.76 2.062-2.561 2.664s-1.553.99-2.255 1.163c-.692.16-1.333.159-1.924-.003-.58-.175-1.114-.452-1.602-.829-.751-.582-1.238-1.275-1.459-2.079-.225-.827-.165-1.751.18-2.77.355-1.032 1.005-2.162 1.952-3.389l.982-1.232 1.455-1.845 1.263-1.678.999-1.376zm4.008 9.333l.306.3-1.65 2.137c-.316.409-.44.829-.373 1.261.064.408.256.841.576 1.3a13.02 13.02 0 0 0 1.183 1.454l1.702 1.887c.705.778 1.031 1.515.978 2.211s-.35 1.394-.889 2.094c-.438.567-.907.984-1.407 1.25-.487.276-1.067.428-1.74.455l-.023-.461c.247-.02.45-.052.611-.096a1.33 1.33 0 0 0 .455-.344c.194-.251.236-.524.127-.819s-.386-.7-.832-1.213l-1.715-1.992c-.711-.825-1.017-1.683-.917-2.576s.515-1.962 1.245-3.209l.482-.829.685-1.051 1.199-1.759zm6.906-20.102c.36-.27.75-.375 1.169-.316.41.047.769.277 1.079.69a4.25 4.25 0 0 1 .659 1.256l.449 1.476c.16.547.396 1.224.709 2.031l-.28.21c-.653-.51-1.232-.909-1.738-1.196l-1.289-.845c-.376-.28-.714-.62-1.014-1.021-.31-.413-.434-.831-.374-1.251s.27-.766.63-1.036zm3.218-2.418c.36-.27.75-.375 1.169-.316.41.047.769.277 1.079.69a4.25 4.25 0 0 1 .659 1.256l.449 1.476c.16.547.396 1.224.709 2.031l-.28.21c-.653-.51-1.232-.909-1.738-1.195l-1.289-.845a4.99 4.99 0 0 1-1.014-1.02c-.31-.414-.434-.831-.374-1.251s.27-.766.63-1.036zm12.114-6.857L71.165 30.44c.48.429.899.683 1.257.762.365.057.656.04.871-.051l.226.446-1.604.762-1.815.898-1.926 1.01-1.425.783-.227-.446c.742-.416 1.153-.784 1.233-1.106.087-.344-.21-.819-.892-1.425L57.81 23.64l.106-.784 1.099 10.552c.089.984.228 1.755.418 2.313.205.55.446.933.723 1.147.292.207.624.29.996.25a4.84 4.84 0 0 0 1.249-.412l.227.446-1.426.671-1.37.67-.924.499a6.49 6.49 0 0 0-.735.431l-.227-.446c.282-.218.499-.582.652-1.09s.178-1.251.074-2.227l-1.547-15.627.768-.364.768-.42zm6.338 8.611l.227.446-6.637 3.384-.004-.559 6.414-3.27zm13.33-16.267c1.069-.26 1.983-.31 2.741-.152a8.77 8.77 0 0 1 2.111.645c.383.164.634.138.752-.08.131-.238.145-.713.041-1.425l.559-.136.486 2.326.841 3.578-.559.136c-.261-.725-.52-1.332-.775-1.818-.259-.503-.551-.93-.876-1.279s-.737-.636-1.236-.857a3.92 3.92 0 0 0-1.627-.557 5.01 5.01 0 0 0-1.747.116c-.875.213-1.563.628-2.064 1.248-.505.603-.856 1.349-1.053 2.237-.18.884-.238 1.85-.173 2.898.061 1.031.221 2.082.48 3.151.263 1.085.605 2.108 1.027 3.069.434.941.939 1.753 1.516 2.436.593.679 1.261 1.169 2.002 1.469s1.541.346 2.4.137a4.82 4.82 0 0 0 1.533-.681c.5-.344.897-.758 1.191-1.241.514-.639.798-1.343.852-2.111.05-.784-.013-1.789-.19-3.015l.559-.136.931 3.736.65 2.363-.559.136c-.234-.681-.453-1.091-.658-1.229-.189-.143-.434-.058-.735.256a13.59 13.59 0 0 1-1.648 1.584c-.589.469-1.41.832-2.463 1.088-1.717.417-3.307.435-4.771.053-1.448-.386-2.687-1.148-3.718-2.287s-1.769-2.632-2.217-4.478c-.439-1.814-.46-3.49-.06-5.028.415-1.542 1.171-2.849 2.266-3.921 1.111-1.076 2.509-1.819 4.193-2.228zm27.365-2.28l-.131 2.451-.012 1.8.034 1.05.056.85-.575.005c-.277-1.398-.628-2.504-1.051-3.317-.406-.813-.894-1.385-1.463-1.714-.569-.346-1.237-.515-2.004-.51l-.575.004.11 14.275c.005.667.076 1.166.212 1.498.152.332.421.555.805.669.384.097.943.151 1.676.162l.004.5-2.075-.034-2.675-.004-2.6.045-1.975.065-.004-.5c.75-.022 1.316-.085 1.699-.188.382-.12.639-.347.77-.681s.194-.835.188-1.501L96 9.961l-.55.004c-.767.006-1.432.186-1.996.54-.564.338-1.043.916-1.437 1.736-.394.803-.735 1.914-1.024 3.333l-.575.005c.032-.234.046-.517.044-.85l.017-1.05-.064-1.8-.144-2.449 2.5.031 2.75.004 2.475-.019 2.475-.019 2.75-.046 2.475-.069zm5.991.418l1.623.42 2.067.495 2.273.49 1.565.33c2.26.513 3.849 1.343 4.768 2.492s1.219 2.43.899 3.844c-.132.585-.386 1.177-.76 1.776-.371.582-.896 1.087-1.573 1.514-.658.415-1.497.686-2.517.813s-2.245.029-3.675-.296l-2.487-.564.11-.488 2.243.509c.959.218 1.732.162 2.319-.166.603-.325 1.075-.824 1.416-1.499.357-.671.629-1.421.816-2.25.35-1.544.383-2.75.101-3.617s-.976-1.426-2.081-1.677c-.634-.144-1.08-.1-1.337.132-.242.236-.458.776-.649 1.622l-2.703 11.948c-.143.634-.185 1.12-.125 1.459s.266.599.618.781.892.365 1.619.547l-.121.536-1.939-.491-2.506-.594-2.053-.441-1.816-.361.111-.488c.527.085.932.109 1.214.07s.497-.195.644-.469c.164-.271.312-.698.445-1.284l2.735-12.094c.136-.602.187-1.052.152-1.35-.015-.311-.15-.547-.404-.707-.234-.173-.602-.325-1.102-.455l.11-.488zm27.214 8.432l-1.305 16.744c-.05.642.002 1.13.157 1.463.176.326.366.547.569.663l-.217.451-1.577-.816-1.813-.902-1.97-.922-1.486-.661.217-.451c.78.339 1.322.443 1.625.312.326-.139.522-.664.59-1.575l1.206-12.324.687-.39-7.71 7.273c-.727.667-1.255 1.245-1.583 1.735-.312.497-.47.921-.472 1.271.013.358.149.673.406.945.28.264.641.513 1.085.745l-.217.451-1.397-.729-1.363-.685-.957-.433a6.6 6.6 0 0 0-.787-.324l.217-.451c.344.092.764.045 1.26-.142s1.101-.617 1.813-1.291l11.468-10.707.755.392.799.358zm-2.992 10.269l-.217.451-6.711-3.235.442-.342 6.486 3.127zm30.321 9.3l-.328.377c-.413-.338-.758-.551-1.036-.638-.266-.1-.536-.069-.808.091-.248.159-.575.471-.98.937l-8.134 9.359c-.394.453-.657.82-.791 1.101-.122.292-.115.564.02.814s.394.564.774.94l-.328.377-1.305-1.204-1.604-1.432-1.712-1.46-1.314-1.08.328-.377c.449.347.813.576 1.092.687a.9.9 0 0 0 .845-.058c.272-.16.606-.468.999-.92l8.873-10.208.131.115-15.299 8.152-.302-.263 5.474-16.588-7.855 9.038c-.602.692-1.028 1.259-1.281 1.702-.242.431-.308.837-.199 1.22.133.381.448.844.946 1.389l-.328.377c-.217-.233-.52-.52-.909-.859l-1.077-.972-.902-.753a8.21 8.21 0 0 0-.786-.62l.328-.377c.456.288.851.444 1.183.468s.677-.106 1.035-.391c.382-.286.835-.732 1.36-1.335l7.38-8.491c.404-.465.662-.838.772-1.117.134-.281.127-.553-.021-.814-.124-.263-.376-.571-.754-.923l.328-.377.721.695.869.791 1.599 1.361 1.427 1.178-4.358 13.017-.848.023 12.43-6.641.659.575.679.592 1.636 1.394 1.371 1.129zm11.687 16.175l-1.845 1.063-1.32.86-.774.552-.594.461-.321-.477c.916-.818 1.567-1.569 1.952-2.25.399-.691.558-1.351.477-1.98-.058-.624-.296-1.248-.714-1.87l-.572-.851c-.269-.401-.508-.682-.717-.843a.75.75 0 0 0-.693-.136c-.254.071-.595.25-1.024.539l-10.779 7.266c-.429.289-.723.538-.884.747a.75.75 0 0 0-.136.694c.07.254.24.582.51.983l.683 1.017c.418.623.917 1.081 1.495 1.374.602.298 1.339.394 2.212.288.881-.092 1.936-.421 3.162-.986l.321.477a23.37 23.37 0 0 0-1.783 1.111l-1.334.929-1.72 1.34-1.562-2.414-1.568-2.38-.892-1.328-1.192-1.729-1.29-1.875-1.233-1.791.414-.279c.325.424.604.719.835.884s.496.199.791.1c.304-.085.705-.295 1.203-.63l10.282-6.931c.511-.345.857-.638 1.036-.879.202-.237.266-.501.191-.792-.052-.287-.215-.649-.49-1.087l.415-.279 1.171 1.833 1.248 1.902 1.171 1.743.892 1.328 1.45 2.158 1.526 2.137zm-9.264 1.542l-.208.14-.207.14-2.44-3.632.208-.14.207-.14 2.44 3.632zm3.14-1.243l-1.859 1.133-1.126.789-1.126.789-1.734 1.319-.321-.477c.437-.395.798-.829 1.083-1.303a2.83 2.83 0 0 0 .465-1.459c.03-.523-.14-1.061-.512-1.614l.414-.28c.279.415.599.712.96.891a2.69 2.69 0 0 0 1.158.245c.421-.002.827-.055 1.219-.158s.745-.221 1.059-.352l.32.477zm14.419 18.214l-.465.183c-.222-.522-.443-.901-.661-1.137a.9.9 0 0 0-.768-.316c-.3.011-.737.129-1.311.354l-11.54 4.536c-.559.219-.97.426-1.234.619-.243.203-.37.45-.381.741.004.285.103.676.298 1.172l.273.698-1.799.546-1.289.48-.829.353-.656.312-.21-.535c.963-.558 1.68-1.126 2.151-1.705.456-.573.701-1.18.737-1.821.041-.625-.081-1.302-.367-2.032l-2.206-5.633c-.286-.729-.66-1.317-1.121-1.762-.454-.43-1.043-.7-1.767-.81-.738-.104-1.65-.032-2.734.215l-.21-.535c.198-.042.429-.115.693-.219l.846-.306 1.262-.55 1.699-.802 2.654 6.774c.207.528.408.905.605 1.132a.97.97 0 0 0 .8.33c.332-.023.776-.144 1.335-.363l11.54-4.536c.574-.226.979-.448 1.216-.666.243-.203.362-.447.358-.732.017-.275-.05-.607-.202-.995l-.119-.303c-.127-.326-.285-.568-.473-.727-.172-.165-.426-.244-.764-.237-.315.017-.762.111-1.338.284l-2.953.892-3.218.97-3.184.714c-1.019.186-1.973.265-2.86.238-.873-.033-1.634-.218-2.284-.553-.635-.341-1.099-.885-1.391-1.629l.443-.174a2.49 2.49 0 0 0 1.493 1.481c.731.268 1.612.369 2.643.304s2.161-.241 3.391-.527l3.841-1.026 3.869-1.226c.555-.182.954-.375 1.197-.578a.9.9 0 0 0 .372-.764c-.001-.322-.103-.765-.307-1.33l.466-.183.409 1.182.46 1.243.425 1.015.447 1.006.583 1.624.652 1.732.492 1.257.534 1.294.457 1.029zm2.249 6.74a1.53 1.53 0 0 1-.218 1.192c-.218.35-.581.577-1.087.68a4.25 4.25 0 0 1-1.417.058l-1.525-.226c-.562-.09-1.275-.166-2.138-.229l-.069-.343c.741-.372 1.35-.725 1.826-1.059l1.317-.803c.415-.22.867-.38 1.357-.48.506-.103.936-.037 1.29.197a1.52 1.52 0 0 1 .664 1.013zm.798 3.945a1.53 1.53 0 0 1-.218 1.192c-.218.35-.581.577-1.087.68a4.25 4.25 0 0 1-1.417.058l-1.525-.226c-.562-.09-1.275-.166-2.138-.229l-.069-.343c.741-.371 1.35-.725 1.826-1.059l1.317-.803c.415-.22.867-.38 1.357-.48.506-.103.936-.037 1.29.197a1.52 1.52 0 0 1 .664 1.013z"/></svg>