<svg xmlns="http://www.w3.org/2000/svg" width="20" height="20" fill="none" xmlns:v="https://vecta.io/nano"><path d="M20 1.667V20H0V1.667h2.5V2.5a1.67 1.67 0 0 0 1.667 1.667A1.67 1.67 0 0 0 5.833 2.5v-.833h8.333V2.5a1.67 1.67 0 0 0 1.667 1.667A1.67 1.67 0 0 0 17.5 2.5v-.833H20zm-1.667 5H1.667v11.667h16.667V6.667zM16.667.833c0-.46-.372-.833-.833-.833S15 .373 15 .833V2.5c0 .46.373.833.833.833s.833-.373.833-.833V.833zM5 2.5c0 .46-.372.833-.833.833s-.833-.373-.833-.833V.833c0-.46.373-.833.833-.833S5 .373 5 .833V2.5zm.833 9.774l.712-.659c.833.403 1.363.71 2.3 1.378 1.761-1.999 2.926-3.013 5.088-4.359l.232.533c-1.784 1.557-3.091 3.291-4.973 6.666-1.161-1.367-1.935-2.238-3.361-3.559z" fill="#787878"/></svg>