<svg width="163" height="41" viewBox="0 0 163 41" fill="none" xmlns="http://www.w3.org/2000/svg">
<path d="M44.7236 22.8605V5.26782H56.8989V8.47328H48.3265V22.8605H44.7236Z" fill="#02283F"/>
<path d="M60.0403 19.506L58.7731 22.8605H54.8472L61.6554 5.26782H65.7304L72.4392 22.8605H68.4885L67.271 19.506H60.0403ZM61.0839 16.3254H66.2025L63.6681 9.09449L61.0839 16.3254Z" fill="#02283F"/>
<path d="M78.2286 5.26782L83.4963 13.5424L88.6895 5.26782H92.5408V22.8605H88.9379V10.7096L84.2418 18.3133H82.6267L77.8808 10.7096V22.8605H74.3027V5.26782H78.2286Z" fill="#02283F"/>
<path d="M99.5926 19.506L98.3253 22.8605H94.3994L101.208 5.26782H105.283L111.991 22.8605H108.041L106.823 19.506H99.5926ZM100.636 16.3254H105.755L103.22 9.09449L100.636 16.3254Z" fill="#02283F"/>
<path d="M121.633 4.09997C120.291 4.09997 119.181 3.76866 118.303 3.10603C117.425 2.44341 116.912 1.44118 116.763 0.0993652H119.794C120.026 1.06017 120.647 1.54058 121.658 1.54058C122.138 1.54058 122.535 1.41634 122.85 1.16785C123.182 0.919367 123.389 0.563203 123.471 0.0993652H126.553C126.37 1.44118 125.832 2.44341 124.937 3.10603C124.06 3.76866 122.958 4.09997 121.633 4.09997ZM117.458 16.6236L126.056 5.26784H128.963V22.8606H125.36V11.6042L116.763 22.8606H113.855V5.26784H117.458V16.6236Z" fill="#02283F"/>
<path d="M142.773 5.26782H146.823L142.226 16.0521C142.044 16.4828 141.846 16.9383 141.63 17.4187C141.431 17.8992 141.208 18.3795 140.959 18.8599C140.711 19.3404 140.437 19.8042 140.139 20.2515C139.858 20.6822 139.543 21.0632 139.195 21.3945C138.615 21.9246 137.969 22.3139 137.257 22.5624C136.561 22.7943 135.733 22.8937 134.772 22.8605H133.604V19.6799H134.176C134.457 19.6799 134.747 19.6717 135.046 19.6551C135.344 19.622 135.642 19.5392 135.94 19.4066C136.238 19.2741 136.528 19.0753 136.81 18.8102C137.108 18.5452 137.381 18.1642 137.63 17.6672L130.896 5.26782H135.07L139.468 13.8654L142.773 5.26782Z" fill="#02283F"/>
<path d="M151.963 12.5733H159.393V5.26782H162.996V22.8605H159.393V15.7787H151.963V22.8605H148.36V5.26782H151.963V12.5733Z" fill="#02283F"/>
<path d="M45.9582 39.0718C45.4215 39.0718 44.9412 38.9557 44.5171 38.7239C44.0996 38.4921 43.7716 38.174 43.5331 37.7697C43.2946 37.359 43.1753 36.8951 43.1753 36.3782C43.1753 35.8614 43.2946 35.4009 43.5331 34.9966C43.7716 34.5859 44.0996 34.2678 44.5171 34.0425C44.9412 33.8106 45.4215 33.6946 45.9582 33.6946C46.4353 33.6946 46.8594 33.7907 47.2304 33.9828C47.6081 34.1749 47.8996 34.4532 48.1051 34.8177L47.3795 35.2849C47.2138 35.0332 47.0085 34.8443 46.7633 34.7183C46.518 34.5924 46.2465 34.5295 45.9483 34.5295C45.6036 34.5295 45.2923 34.6058 45.014 34.7581C44.7424 34.9104 44.527 35.1291 44.368 35.4141C44.2157 35.6924 44.1394 36.0137 44.1394 36.3782C44.1394 36.7492 44.2157 37.0772 44.368 37.3622C44.527 37.6405 44.7424 37.856 45.014 38.0083C45.2923 38.1606 45.6036 38.2369 45.9483 38.2369C46.2465 38.2369 46.518 38.174 46.7633 38.048C47.0085 37.922 47.2138 37.7332 47.3795 37.4815L48.1051 37.9387C47.8996 38.3032 47.6081 38.5848 47.2304 38.7835C46.8594 38.9756 46.4353 39.0718 45.9582 39.0718Z" fill="#333333"/>
<path d="M53.6953 34.579H51.7671V39.012H50.8129V34.579H48.8848V33.7441H53.6953V34.579Z" fill="#333333"/>
<path d="M57.9608 33.6946C58.471 33.6946 58.9282 33.8071 59.3324 34.0325C59.7364 34.2579 60.0513 34.5725 60.2766 34.9768C60.5085 35.381 60.6245 35.8482 60.6245 36.3782C60.6245 36.9082 60.5085 37.3789 60.2766 37.7896C60.0513 38.1939 59.7364 38.5085 59.3324 38.7339C58.9282 38.9592 58.471 39.0718 57.9608 39.0718C57.5832 39.0718 57.2353 38.999 56.9172 38.8531C56.6057 38.7073 56.3408 38.4953 56.1221 38.217V40.9404H55.168V33.7443H56.0824V34.5792C56.2943 34.2877 56.5627 34.069 56.8874 33.9232C57.2119 33.7709 57.5697 33.6946 57.9608 33.6946ZM57.8813 38.2369C58.2193 38.2369 58.5207 38.1606 58.7858 38.0083C59.0574 37.8492 59.2693 37.6306 59.4219 37.3523C59.5809 37.0673 59.6604 36.7427 59.6604 36.3782C59.6604 36.0137 59.5809 35.6924 59.4219 35.4141C59.2693 35.1291 59.0574 34.9104 58.7858 34.7581C58.5207 34.6058 58.2193 34.5295 57.8813 34.5295C57.5499 34.5295 57.2485 34.609 56.9769 34.768C56.7117 34.9204 56.4998 35.1358 56.3408 35.4141C56.1882 35.6924 56.1122 36.0137 56.1122 36.3782C56.1122 36.7427 56.1882 37.0673 56.3408 37.3523C56.4931 37.6306 56.705 37.8492 56.9769 38.0083C57.2485 38.1606 57.5499 38.2369 57.8813 38.2369Z" fill="#333333"/>
<path d="M64.3375 33.6946C65.0665 33.6946 65.6231 33.8735 66.0072 34.2313C66.3983 34.5891 66.5936 35.1226 66.5936 35.8315V39.0122H65.6892V38.3164C65.5301 38.5617 65.3015 38.7505 65.0034 38.8829C64.7119 39.0089 64.364 39.0718 63.9598 39.0718C63.3701 39.0718 62.8963 38.9294 62.5385 38.6444C62.1874 38.3594 62.0117 37.9852 62.0117 37.5212C62.0117 37.0573 62.1807 36.6863 62.5186 36.408C62.8565 36.123 63.3932 35.9806 64.1287 35.9806H65.6395V35.7918C65.6395 35.381 65.5202 35.0662 65.2817 34.8475C65.0431 34.6289 64.692 34.5195 64.2281 34.5195C63.9168 34.5195 63.6119 34.5725 63.3137 34.6786C63.0156 34.778 62.7639 34.9139 62.5584 35.0861L62.1608 34.3705C62.4326 34.1518 62.7571 33.9861 63.1348 33.8735C63.5125 33.7542 63.9136 33.6946 64.3375 33.6946ZM64.1188 38.3363C64.4833 38.3363 64.7981 38.2568 65.063 38.0977C65.3281 37.932 65.5202 37.7002 65.6395 37.402V36.6665H64.1685C63.3602 36.6665 62.9559 36.9381 62.9559 37.4815C62.9559 37.7466 63.0588 37.9553 63.264 38.1077C63.4695 38.26 63.7545 38.3363 64.1188 38.3363Z" fill="#333333"/>
<path d="M72.0983 39.012L70.5777 36.9943L69.0371 39.012H67.9736L70.0509 36.3184L68.073 33.7441H69.1365L70.5876 35.6426L72.0288 33.7441H73.0724L71.0846 36.3184L73.1817 39.012H72.0983Z" fill="#333333"/>
<path d="M76.7642 39.0718C76.2406 39.0718 75.7703 38.9557 75.3528 38.7239C74.9354 38.4921 74.6074 38.174 74.3689 37.7697C74.1368 37.359 74.021 36.8951 74.021 36.3782C74.021 35.8614 74.1368 35.4009 74.3689 34.9966C74.6074 34.5859 74.9354 34.2678 75.3528 34.0425C75.7703 33.8106 76.2406 33.6946 76.7642 33.6946C77.2875 33.6946 77.7546 33.8106 78.1656 34.0425C78.583 34.2678 78.9075 34.5859 79.1396 34.9966C79.3781 35.4009 79.4974 35.8614 79.4974 36.3782C79.4974 36.8951 79.3781 37.359 79.1396 37.7697C78.9075 38.174 78.583 38.4921 78.1656 38.7239C77.7546 38.9557 77.2875 39.0718 76.7642 39.0718ZM76.7642 38.2369C77.1021 38.2369 77.4035 38.1606 77.6686 38.0083C77.9402 37.8492 78.1521 37.6306 78.3047 37.3523C78.457 37.0673 78.5333 36.7427 78.5333 36.3782C78.5333 36.0137 78.457 35.6924 78.3047 35.4141C78.1521 35.1291 77.9402 34.9104 77.6686 34.7581C77.4035 34.6058 77.1021 34.5295 76.7642 34.5295C76.4262 34.5295 76.1214 34.6058 75.8498 34.7581C75.5846 34.9104 75.3727 35.1291 75.2137 35.4141C75.0611 35.6924 74.9851 36.0137 74.9851 36.3782C74.9851 36.7427 75.0611 37.0673 75.2137 37.3523C75.3727 37.6306 75.5846 37.8492 75.8498 38.0083C76.1214 38.1606 76.4262 38.2369 76.7642 38.2369Z" fill="#333333"/>
<path d="M84.9601 36.2787C85.6424 36.4509 85.9838 36.8783 85.9838 37.5609C85.9838 38.0248 85.8081 38.3826 85.457 38.6343C85.1124 38.886 84.5955 39.012 83.9065 39.012H81.3721V33.7441H83.8171C84.4397 33.7441 84.9268 33.8634 85.2781 34.102C85.6292 34.3338 85.8049 34.6653 85.8049 35.0959C85.8049 35.3742 85.7286 35.616 85.5763 35.8215C85.4304 36.0203 85.2249 36.1726 84.9601 36.2787ZM82.3063 36.0103H83.7376C84.1018 36.0103 84.3769 35.944 84.5625 35.8115C84.7546 35.6791 84.8507 35.4868 84.8507 35.235C84.8507 34.7314 84.4795 34.4797 83.7376 34.4797H82.3063V36.0103ZM83.837 38.2765C84.2345 38.2765 84.5327 38.2136 84.7315 38.0877C84.9302 37.9617 85.0296 37.7664 85.0296 37.5012C85.0296 37.2296 84.9367 37.0274 84.7513 36.8949C84.5724 36.7625 84.2874 36.6961 83.8966 36.6961H82.3063V38.2765H83.837Z" fill="#333333"/>
<path d="M89.8526 33.6946C90.5814 33.6946 91.1379 33.8735 91.5223 34.2313C91.9132 34.5891 92.1087 35.1226 92.1087 35.8315V39.0122H91.2043V38.3164C91.0453 38.5617 90.8167 38.7505 90.5185 38.8829C90.227 39.0089 89.8792 39.0718 89.4749 39.0718C88.8853 39.0718 88.4114 38.9294 88.0536 38.6444C87.7025 38.3594 87.5269 37.9852 87.5269 37.5212C87.5269 37.0573 87.6958 36.6863 88.0337 36.408C88.3717 36.123 88.9084 35.9806 89.6439 35.9806H91.1546V35.7918C91.1546 35.381 91.0353 35.0662 90.7968 34.8475C90.5583 34.6289 90.2072 34.5195 89.7433 34.5195C89.4319 34.5195 89.127 34.5725 88.8289 34.6786C88.5307 34.778 88.279 34.9139 88.0735 35.0861L87.6759 34.3705C87.9475 34.1518 88.2723 33.9861 88.65 33.8735C89.0276 33.7542 89.4284 33.6946 89.8526 33.6946ZM89.6339 38.3363C89.9984 38.3363 90.313 38.2568 90.5781 38.0977C90.8433 37.932 91.0353 37.7002 91.1546 37.402V36.6665H89.6836C88.8753 36.6665 88.4711 36.9381 88.4711 37.4815C88.4711 37.7466 88.5737 37.9553 88.7792 38.1077C88.9847 38.26 89.2694 38.3363 89.6339 38.3363Z" fill="#333333"/>
<path d="M99.5377 36.7856H98.4444V39.012H97.4902V33.7441H98.4444V35.9706H99.5576L101.267 33.7441H102.291L100.293 36.2787L102.43 39.012H101.307L99.5377 36.7856Z" fill="#333333"/>
<path d="M106.009 39.0718C105.485 39.0718 105.015 38.9557 104.597 38.7239C104.18 38.4921 103.852 38.174 103.613 37.7697C103.382 37.359 103.266 36.8951 103.266 36.3782C103.266 35.8614 103.382 35.4009 103.613 34.9966C103.852 34.5859 104.18 34.2678 104.597 34.0425C105.015 33.8106 105.485 33.6946 106.009 33.6946C106.532 33.6946 106.999 33.8106 107.41 34.0425C107.828 34.2678 108.152 34.5859 108.384 34.9966C108.623 35.4009 108.742 35.8614 108.742 36.3782C108.742 36.8951 108.623 37.359 108.384 37.7697C108.152 38.174 107.828 38.4921 107.41 38.7239C106.999 38.9557 106.532 39.0718 106.009 39.0718ZM106.009 38.2369C106.347 38.2369 106.648 38.1606 106.913 38.0083C107.185 37.8492 107.397 37.6306 107.549 37.3523C107.702 37.0673 107.778 36.7427 107.778 36.3782C107.778 36.0137 107.702 35.6924 107.549 35.4141C107.397 35.1291 107.185 34.9104 106.913 34.7581C106.648 34.6058 106.347 34.5295 106.009 34.5295C105.671 34.5295 105.366 34.6058 105.094 34.7581C104.829 34.9104 104.617 35.1291 104.458 35.4141C104.306 35.6924 104.23 36.0137 104.23 36.3782C104.23 36.7427 104.306 37.0673 104.458 37.3523C104.617 37.6306 104.829 37.8492 105.094 38.0083C105.366 38.1606 105.671 38.2369 106.009 38.2369Z" fill="#333333"/>
<path d="M116.689 33.7441V39.012H115.825V35.1655L113.857 38.4157H113.439L111.491 35.1555V39.012H110.617V33.7441H111.601L113.668 37.3024L115.795 33.7441H116.689Z" fill="#333333"/>
<path d="M123.924 33.7441V39.012H122.969V34.579H119.998V39.012H119.043V33.7441H123.924Z" fill="#333333"/>
<path d="M128.145 33.6946C128.874 33.6946 129.431 33.8735 129.815 34.2313C130.206 34.5891 130.401 35.1226 130.401 35.8315V39.0122H129.497V38.3164C129.338 38.5617 129.109 38.7505 128.811 38.8829C128.52 39.0089 128.172 39.0718 127.767 39.0718C127.178 39.0718 126.704 38.9294 126.346 38.6444C125.995 38.3594 125.819 37.9852 125.819 37.5212C125.819 37.0573 125.988 36.6863 126.326 36.408C126.664 36.123 127.201 35.9806 127.936 35.9806H129.447V35.7918C129.447 35.381 129.328 35.0662 129.089 34.8475C128.851 34.6289 128.5 34.5195 128.036 34.5195C127.724 34.5195 127.42 34.5725 127.121 34.6786C126.823 34.778 126.571 34.9139 126.366 35.0861L125.968 34.3705C126.24 34.1518 126.565 33.9861 126.942 33.8735C127.32 33.7542 127.721 33.6946 128.145 33.6946ZM127.926 38.3363C128.291 38.3363 128.606 38.2568 128.871 38.0977C129.136 37.932 129.328 37.7002 129.447 37.402V36.6665H127.976C127.168 36.6665 126.764 36.9381 126.764 37.4815C126.764 37.7466 126.866 37.9553 127.072 38.1077C127.277 38.26 127.562 38.3363 127.926 38.3363Z" fill="#333333"/>
<path d="M132.616 33.7441H133.57V35.9805H136.572V33.7441H137.526V39.012H136.572V36.8055H133.57V39.012H132.616V33.7441Z" fill="#333333"/>
<path d="M139.878 33.7443H140.833V39.0122H139.878V33.7443ZM140.356 32.7305C140.17 32.7305 140.014 32.6708 139.888 32.5516C139.769 32.4323 139.709 32.2864 139.709 32.1142C139.709 31.942 139.769 31.7962 139.888 31.6769C140.014 31.5509 140.17 31.488 140.356 31.488C140.541 31.488 140.693 31.5477 140.813 31.6669C140.938 31.7795 141.002 31.9221 141.002 32.0943C141.002 32.2732 140.938 32.4256 140.813 32.5516C140.693 32.6708 140.541 32.7305 140.356 32.7305Z" fill="#333333"/>
<path d="M147.415 33.7441V39.012H146.56V37.3422H145.029H144.92L143.767 39.012H142.743L144.025 37.213C143.628 37.0937 143.323 36.8982 143.111 36.6266C142.899 36.3483 142.793 36.0036 142.793 35.5929C142.793 34.9898 142.998 34.5326 143.409 34.2212C143.82 33.9032 144.386 33.7441 145.109 33.7441H147.415ZM143.767 35.6227C143.767 35.9738 143.876 36.2357 144.095 36.4079C144.32 36.5736 144.655 36.6564 145.099 36.6564H146.56V34.579H145.138C144.224 34.579 143.767 34.9269 143.767 35.6227Z" fill="#333333"/>
<path d="M19.5168 6.50203C22.2785 6.50203 25.2952 7.20912 27.6326 8.36159V23.6283C27.6326 26.2323 26.9597 26.7688 19.5055 31.364L19.5168 6.50203ZM34.1345 4.87651V23.6283C34.1345 31.1088 28.9267 33.0612 19.5055 39.0121C10.0844 33.0612 4.87646 31.1073 4.87646 23.6283V4.87651C8.03794 2.16842 13.5498 0 19.5055 0C25.4612 0 30.9729 2.16842 34.1345 4.87651ZM30.8837 6.48739C28.0732 4.60343 23.795 3.251 19.5168 3.251C15.2029 3.251 10.9329 4.60669 8.12735 6.48739V23.6267C8.12735 28.5504 10.8223 29.8214 19.5055 35.1792C28.1788 29.8264 30.8837 28.5551 30.8837 23.6267V6.48739Z" fill="#02283F"/>
</svg>
